<svg xmlns="http://www.w3.org/2000/svg" viewBox="0 0 200 200" fill="none">
  <defs>
    <linearGradient id="bubbleLoveGrad" x1="0%" y1="0%" x2="100%" y2="100%">
      <stop offset="0%" stop-color="#FF80AB"/>
      <stop offset="100%" stop-color="#FF4081"/>
    </linearGradient>
    <filter id="bubbleLoveShadow" x="-10%" y="-10%" width="120%" height="130%">
      <feDropShadow dx="0" dy="3" stdDeviation="4" flood-color="#C51162" flood-opacity="0.25"/>
    </filter>
  </defs>
  <!-- Speech bubble -->
  <path d="M25 40 Q25 15, 55 15 L145 15 Q175 15, 175 40 L175 110 Q175 135, 145 135 L85 135 L55 165 L65 135 L55 135 Q25 135, 25 110Z" fill="url(#bubbleLoveGrad)" filter="url(#bubbleLoveShadow)"/>
  <!-- Highlight -->
  <path d="M35 40 Q35 25, 55 25 L140 25 Q160 25, 165 35" fill="none" stroke="white" stroke-width="2.5" opacity="0.3" stroke-linecap="round"/>
  <!-- Text -->
  <text x="100" y="68" text-anchor="middle" font-family="Arial, Helvetica, sans-serif" font-weight="bold" font-size="36" fill="white">LOVE</text>
  <!-- Mini hearts -->
  <path d="M55 95 C52 91, 46 91, 46 95 C46 99, 55 105, 55 105 C55 105, 64 99, 64 95 C64 91, 58 91, 55 95Z" fill="white" opacity="0.6"/>
  <path d="M100 100 C97 96, 91 96, 91 100 C91 104, 100 110, 100 110 C100 110, 109 104, 109 100 C109 96, 103 96, 100 100Z" fill="white" opacity="0.5"/>
  <path d="M145 95 C142 91, 136 91, 136 95 C136 99, 145 105, 145 105 C145 105, 154 99, 154 95 C154 91, 148 91, 145 95Z" fill="white" opacity="0.6"/>
</svg>
