<svg xmlns="http://www.w3.org/2000/svg" viewBox="0 0 200 200" fill="none">
  <defs>
    <linearGradient id="bubbleBestGrad" x1="0%" y1="0%" x2="100%" y2="100%">
      <stop offset="0%" stop-color="#FFD54F"/>
      <stop offset="100%" stop-color="#FFB300"/>
    </linearGradient>
    <filter id="bubbleBestShadow" x="-10%" y="-10%" width="120%" height="130%">
      <feDropShadow dx="0" dy="3" stdDeviation="4" flood-color="#FF8F00" flood-opacity="0.25"/>
    </filter>
  </defs>
  <!-- Speech bubble -->
  <path d="M25 40 Q25 15, 55 15 L145 15 Q175 15, 175 40 L175 110 Q175 135, 145 135 L85 135 L55 165 L65 135 L55 135 Q25 135, 25 110Z" fill="url(#bubbleBestGrad)" filter="url(#bubbleBestShadow)"/>
  <!-- Highlight -->
  <path d="M35 40 Q35 25, 55 25 L140 25 Q160 25, 165 35" fill="none" stroke="white" stroke-width="2.5" opacity="0.3" stroke-linecap="round"/>
  <!-- Text -->
  <text x="100" y="60" text-anchor="middle" font-family="Arial, Helvetica, sans-serif" font-weight="bold" font-size="28" fill="white">YOU'RE</text>
  <text x="100" y="90" text-anchor="middle" font-family="Arial, Helvetica, sans-serif" font-weight="bold" font-size="28" fill="white">THE BEST</text>
  <!-- Stars -->
  <path d="M45 108 L48 116 L56 117 L50 122 L52 130 L45 126 L38 130 L40 122 L34 117 L42 116Z" fill="white" opacity="0.6"/>
  <path d="M155 108 L158 116 L166 117 L160 122 L162 130 L155 126 L148 130 L150 122 L144 117 L152 116Z" fill="white" opacity="0.6"/>
</svg>
