<svg xmlns="http://www.w3.org/2000/svg" viewBox="0 0 200 200" fill="none">
  <defs>
    <linearGradient id="bubbleXoxoGrad" x1="0%" y1="0%" x2="100%" y2="100%">
      <stop offset="0%" stop-color="#EF9A9A"/>
      <stop offset="100%" stop-color="#E53935"/>
    </linearGradient>
    <filter id="bubbleXoxoShadow" x="-10%" y="-10%" width="120%" height="130%">
      <feDropShadow dx="0" dy="3" stdDeviation="4" flood-color="#B71C1C" flood-opacity="0.25"/>
    </filter>
  </defs>
  <!-- Speech bubble -->
  <path d="M25 40 Q25 15, 55 15 L145 15 Q175 15, 175 40 L175 110 Q175 135, 145 135 L85 135 L55 165 L65 135 L55 135 Q25 135, 25 110Z" fill="url(#bubbleXoxoGrad)" filter="url(#bubbleXoxoShadow)"/>
  <!-- Highlight -->
  <path d="M35 40 Q35 25, 55 25 L140 25 Q160 25, 165 35" fill="none" stroke="white" stroke-width="2.5" opacity="0.3" stroke-linecap="round"/>
  <!-- Text -->
  <text x="100" y="85" text-anchor="middle" font-family="Arial, Helvetica, sans-serif" font-weight="bold" font-size="42" fill="white">XOXO</text>
  <!-- Kiss marks -->
  <path d="M45 110 Q50 105, 55 110 Q58 115, 55 118 Q50 122, 45 118 Q42 115, 45 110Z" fill="white" opacity="0.4"/>
  <path d="M145 108 Q150 103, 155 108 Q158 113, 155 116 Q150 120, 145 116 Q142 113, 145 108Z" fill="white" opacity="0.4"/>
  <!-- Mini hearts -->
  <path d="M100 108 C98 105, 94 105, 94 108 C94 111, 100 115, 100 115 C100 115, 106 111, 106 108 C106 105, 102 105, 100 108Z" fill="white" opacity="0.5"/>
</svg>
