<svg xmlns="http://www.w3.org/2000/svg" viewBox="0 0 200 200" fill="none">
  <defs>
    <linearGradient id="sparkleGrad1" x1="0%" y1="0%" x2="100%" y2="100%">
      <stop offset="0%" stop-color="#FFE082"/>
      <stop offset="100%" stop-color="#FFD54F"/>
    </linearGradient>
    <linearGradient id="sparkleGrad2" x1="0%" y1="0%" x2="100%" y2="100%">
      <stop offset="0%" stop-color="#FF80AB"/>
      <stop offset="100%" stop-color="#FF4081"/>
    </linearGradient>
    <filter id="sparkleShadow" x="-10%" y="-10%" width="120%" height="130%">
      <feDropShadow dx="0" dy="2" stdDeviation="3" flood-color="#FFB300" flood-opacity="0.3"/>
    </filter>
  </defs>
  <!-- Main 4-point sparkle -->
  <path d="M100 15 L110 80 L175 100 L110 120 L100 185 L90 120 L25 100 L90 80Z" fill="url(#sparkleGrad1)" filter="url(#sparkleShadow)"/>
  <!-- Inner glow -->
  <path d="M100 45 L106 85 L145 100 L106 115 L100 155 L94 115 L55 100 L94 85Z" fill="white" opacity="0.4"/>
  <!-- Small sparkles -->
  <path d="M45 40 L48 50 L58 53 L48 56 L45 66 L42 56 L32 53 L42 50Z" fill="url(#sparkleGrad2)" opacity="0.8"/>
  <path d="M160 145 L162 152 L169 154 L162 156 L160 163 L158 156 L151 154 L158 152Z" fill="url(#sparkleGrad2)" opacity="0.7"/>
  <path d="M155 35 L157 42 L164 44 L157 46 L155 53 L153 46 L146 44 L153 42Z" fill="#FFD54F" opacity="0.6"/>
  <path d="M40 155 L42 162 L49 164 L42 166 L40 173 L38 166 L31 164 L38 162Z" fill="#FFD54F" opacity="0.6"/>
</svg>
